PathFileType	4	(X/Y/Z)	C:\Users\Basilio\Documents\Thesis Gigler\squatting_fais\c3dfiles\038\SJ_pre3\markers_experimental.trc
DataRate	CameraRate	NumFrames	NumMarkers	Units	OrigDataRate	OrigDataStartFrame	OrigNumFrames
200.000000	200.000000	4	61	mm	200.000000	1029	2059
Frame#	Time	FHD			LBHD			RBHD			C7			T10			CLAV			LSHO			LUUPA			LMUPA			LDUPA			LLEP			LMEP			LRAD			LUL			LRFIN			RSHO			RUPA1			RMUPA			RDUPA			RLEP			RMEP			RRAD			RUL			RUFIN			LASI			RASI			USACR			LSACR			RSACR			LTHI1			LTHI2			LTHI3			LTHI4			LLFC			LMFC			LTIB1			LTIB2			LTIB3			LTIB4			LLMAL			LMMAL			LHEE			LMT1			LMT2			LMT5			RTHI			RTHI2			RTHI3			RTHI4			RLFC			RMFC			RTIB1			RTIB2			RTIB3			RTIB4			RLMAL			RMMAL			RHEE			RMT1			RMT2			RMT5			
		X1	Y1	Z1	X2	Y2	Z2	X3	Y3	Z3	X4	Y4	Z4	X5	Y5	Z5	X6	Y6	Z6	X7	Y7	Z7	X8	Y8	Z8	X9	Y9	Z9	X10	Y10	Z10	X11	Y11	Z11	X12	Y12	Z12	X13	Y13	Z13	X14	Y14	Z14	X15	Y15	Z15	X16	Y16	Z16	X17	Y17	Z17	X18	Y18	Z18	X19	Y19	Z19	X20	Y20	Z20	X21	Y21	Z21	X22	Y22	Z22	X23	Y23	Z23	X24	Y24	Z24	X25	Y25	Z25	X26	Y26	Z26	X27	Y27	Z27	X28	Y28	Z28	X29	Y29	Z29	X30	Y30	Z30	X31	Y31	Z31	X32	Y32	Z32	X33	Y33	Z33	X34	Y34	Z34	X35	Y35	Z35	X36	Y36	Z36	X37	Y37	Z37	X38	Y38	Z38	X39	Y39	Z39	X40	Y40	Z40	X41	Y41	Z41	X42	Y42	Z42	X43	Y43	Z43	X44	Y44	Z44	X45	Y45	Z45	X46	Y46	Z46	X47	Y47	Z47	X48	Y48	Z48	X49	Y49	Z49	X50	Y50	Z50	X51	Y51	Z51	X52	Y52	Z52	X53	Y53	Z53	X54	Y54	Z54	X55	Y55	Z55	X56	Y56	Z56	X57	Y57	Z57	X58	Y58	Z58	X59	Y59	Z59	X60	Y60	Z60	X61	Y61	Z61	

1030	5.145	-149.9349975585938	1503.600341796875	-932.5203857421877	-290.3017883300782	1418.946533203125	-994.2590332031252	-283.0609130859376	1412.809204101563	-848.6197509765627	-334.9592895507813	1301.514770507813	-912.9089355468752	-482.3679199218751	1065.096313476563	-895.5908813476565	-220.7311553955079	1214.631103515625	-925.4849243164065	-245.2676849365235	1269.889526367188	-1086.379150390625	-322.7675476074219	1134.114990234375	-1269.9697265625	-299.2991333007813	1090.455810546875	-1254.333984375	-329.8742675781251	1073.11279296875	-1302.271118164063	-343.0580749511719	1010.98779296875	-1319.752807617188	-425.499481201172	1020.68994140625	-1315.055419921875	-444.8435974121095	831.6049804687502	-1111.461181640625	-402.3479614257814	782.8345336914065	-1145.016723632813	-430.1104431152345	811.4753417968752	-1044.026000976563	-222.1162261962891	1257.624145507813	-763.7399291992189	-257.8822021484376	1124.410034179688	-585.6273803710939	-257.7103576660157	1077.13720703125	-596.7547607421876	-274.3928833007813	1074.483032226563	-539.6498413085939	-293.9950866699219	1006.217590332031	-508.3491210937501	-374.9098510742188	1024.969848632813	-496.5689086914064	-422.6320800781251	817.2881469726565	-665.8394775390626	-370.7804565429688	774.3908691406252	-643.3740844726564	-400.9035949707032	808.1116333007815	-732.4502563476564	-439.6470336914064	830.484313964844	-1008.456726074219	-421.2467651367189	844.019958496094	-764.7041625976564	-573.0339965820314	939.8151855468752	-880.5213012695315	-599.9008789062501	916.3289794921877	-906.2108154296877	-592.7424316406251	916.3955688476565	-849.2422485351565	-391.7893371582032	637.0296630859376	-1154.603881835938	-321.5615844726563	593.8966064453126	-1179.968017578125	-283.3324890136719	617.8934936523439	-1160.546997070313	-314.5231628417969	532.6558227539064	-1179.42236328125	-287.4060058593751	483.3755493164064	-1180.683715820313	-252.8372955322266	471.5143127441407	-1079.77001953125	-277.0795898437501	297.4264221191407	-1111.388061523438	-347.0077209472657	270.7730102539063	-1161.504028320313	-311.2270202636719	257.1677551269532	-1139.166259765625	-339.4334106445313	186.7465057373047	-1099.144653320313	-460.7595214843751	83.48970031738283	-1093.494384765625	-407.156707763672	97.32706451416018	-1029.914794921875	-499.0937805175782	44.20688247680665	-1030.360229492188	-292.0897521972657	48.22087860107423	-1081.627563476563	-301.9081115722657	49.85341262817384	-1131.515869140625	-352.5098266601563	29.95229721069337	-1167.506103515625	-410.5518493652345	646.0974121093751	-658.7763671875001	-353.4545593261719	618.9210815429689	-638.6304321289064	-325.0029296875001	638.5155639648439	-635.7686157226564	-331.9976806640626	535.3264160156251	-646.3098144531251	-258.4701843261719	445.689422607422	-638.2024536132814	-237.6433868408204	453.4423217773439	-745.1005249023439	-261.2458496093751	276.6774291992188	-680.5493164062501	-370.2961730957032	231.1819152832032	-670.9597778320314	-324.9417419433594	218.2234039306641	-675.5842895507814	-327.5920410156251	170.5640563964844	-710.2407226562501	-441.0940246582032	87.23413085937501	-712.0894775390626	-392.430389404297	89.74201965332033	-782.719421386719	-487.7738342285157	41.31623458862305	-792.4914550781252	-285.0506896972657	48.8035011291504	-706.4647827148439	-303.7858581542969	53.92241287231447	-664.0454101562501	-360.5137023925782	36.00464248657227	-635.6986083984376	
1031	5.15	-149.3758544921875	1502.111694335938	-932.4385375976565	-290.1159057617188	1417.272705078125	-994.2095336914065	-282.4075622558594	1411.480224609375	-848.6562500000002	-334.6047363281251	1300.340209960938	-912.7945556640627	-482.1368103027345	1064.01953125	-895.463562011719	-220.1719055175782	1213.002807617188	-925.4429931640627	-244.5571746826172	1268.544799804688	-1086.2294921875	-322.2482299804688	1133.01953125	-1269.966796875	-298.9624633789063	1089.080322265625	-1254.348510742188	-329.3706970214844	1072.169799804688	-1302.508544921875	-342.6406860351563	1010.035705566406	-1319.778564453125	-425.171112060547	1019.829895019531	-1315.345825195313	-445.009246826172	831.0529785156252	-1111.324462890625	-402.4990539550782	782.342712402344	-1145.047607421875	-430.4965820312501	810.7211914062502	-1043.745727539063	-221.3557739257813	1256.048583984375	-763.7626953125001	-257.2814941406251	1123.098876953125	-585.4937744140626	-257.2234497070313	1075.52294921875	-596.6856079101564	-273.7778625488282	1073.294555664063	-539.5413818359376	-293.6853332519532	1005.121704101563	-508.0725708007814	-374.5205688476563	1024.241821289063	-496.2742004394532	-422.7996520996095	816.6441650390627	-665.7380981445314	-370.9336242675782	773.2329711914065	-643.3639526367189	-400.537567138672	807.3000488281252	-732.2735595703126	-439.7581787109376	829.3674926757815	-1008.3818359375	-421.2785949707032	842.8068847656252	-764.6925659179689	-572.9868774414064	938.665466308594	-880.4321899414065	-599.5261230468751	914.7475585937502	-906.0949707031252	-592.1506347656251	914.9107666015627	-848.8364257812502	-391.958221435547	636.5935058593751	-1154.720703125	-321.6926879882813	593.6860351562501	-1180.226440429688	-283.4057922363282	617.7283325195314	-1160.815185546875	-314.6429443359376	532.3781127929689	-1179.757934570313	-287.2840881347657	483.2297363281251	-1181.02099609375	-252.4772338867188	471.1658630371095	-1080.054077148438	-276.9822082519532	297.2802124023438	-1111.660034179688	-346.8633422851563	270.6240844726563	-1161.714965820313	-311.1188049316407	257.1095581054688	-1139.524169921875	-339.4056396484376	186.697265625	-1099.299072265625	-460.7601013183595	83.51231384277345	-1093.559692382813	-407.0831298828126	97.369987487793	-1030.002075195313	-499.0926208496095	44.20847702026368	-1030.362426757813	-292.2492065429688	48.13120269775392	-1081.618530273438	-301.8794860839844	49.84946441650392	-1131.559936523438	-352.4934997558594	29.95912551879884	-1167.514282226563	-410.4692687988282	645.4484863281251	-658.6641235351564	-352.9826660156251	618.9884033203126	-638.2949829101564	-324.8597717285157	638.0038452148439	-635.6132202148439	-331.6713867187501	534.7003173828126	-646.0288085937501	-258.0468139648438	445.279510498047	-637.9093627929689	-237.3522033691407	453.0610961914064	-744.7334594726564	-261.0416259765626	276.5207824707032	-680.3507690429689	-370.1360778808594	230.9396972656251	-670.8179931640626	-324.7520141601563	218.0555419921876	-675.3571777343751	-327.5402221679688	170.4362182617188	-710.0726318359376	-441.0993652343751	87.21736907958986	-712.0563964843751	-392.4102172851564	89.78231811523439	-782.7171020507815	-487.8048706054689	41.3183822631836	-792.4963989257815	-285.0994262695313	48.69394302368165	-706.4354858398439	-303.8159179687501	53.86604690551759	-664.0294189453126	-360.5234375000001	36.0029640197754	-635.6813964843751	
1032	5.155	-148.9921264648438	1500.786987304688	-932.3275146484377	-289.4247741699219	1416.228393554688	-994.172546386719	-281.7790527343751	1409.874389648438	-848.5481567382815	-334.0666809082032	1298.951782226563	-912.7987060546877	-481.9936828613282	1063.056762695313	-895.3306884765627	-219.6456451416016	1211.69482421875	-925.480651855469	-243.9099426269532	1266.842651367188	-1086.10693359375	-321.6017761230469	1132.064697265625	-1270.099731445313	-298.4144897460938	1088.2099609375	-1254.423217773438	-328.7858886718751	1071.045776367188	-1302.563720703125	-342.2221374511719	1008.997131347656	-1320.028198242188	-424.8593750000001	1019.102233886719	-1315.587646484375	-445.2418518066407	830.5241699218752	-1111.304321289063	-402.7260742187501	781.7545166015627	-1144.988159179688	-430.7264099121095	810.149597167969	-1043.70458984375	-220.644515991211	1254.737426757813	-763.6170654296876	-256.6722106933594	1121.761352539063	-585.4913940429689	-256.9253845214844	1074.578247070313	-596.4069824218751	-273.4542236328126	1072.197631835938	-539.3825073242189	-293.4002990722657	1003.884582519531	-507.6798400878907	-374.0604553222657	1023.044738769531	-495.9475097656251	-422.9494628906251	815.8554687500002	-665.5356445312501	-370.9827270507813	772.4293212890627	-643.4274291992189	-400.9520263671876	806.757751464844	-732.1346435546876	-440.0587463378907	828.3599853515627	-1008.382385253906	-421.3613281250001	841.9920043945315	-764.4963378906251	-573.0485229492189	938.0758056640627	-880.1188964843752	-599.6661987304689	913.804138183594	-905.8886718750002	-592.2183227539064	914.1894531250002	-848.5933227539065	-392.0622558593751	636.2033081054689	-1154.9208984375	-321.8493652343751	593.3526611328126	-1180.494140625	-283.5350341796876	617.5261840820314	-1161.027221679688	-314.6726379394532	532.1089477539064	-1180.153564453125	-287.2578430175782	483.071258544922	-1181.431396484375	-252.2027435302735	470.965301513672	-1080.350952148438	-276.9075622558594	297.1918029785157	-1111.977294921875	-346.6626281738282	270.4770507812501	-1161.982788085938	-310.9824218750001	256.9221496582032	-1139.73486328125	-339.3945617675782	186.6849517822266	-1099.398193359375	-460.7595520019532	83.49572753906251	-1093.602294921875	-407.0817260742189	97.3671798706055	-1030.059326171875	-499.078338623047	44.23744583129884	-1030.37841796875	-292.1771850585938	48.1598472595215	-1081.668334960938	-301.8878173828126	49.87058639526369	-1131.538330078125	-352.4973754882813	29.93106269836426	-1167.503784179688	-410.3461914062501	644.7858276367189	-658.4716796875001	-353.0210266113282	618.1465454101564	-638.1814575195314	-324.7656250000001	637.4086303710939	-635.3322753906251	-331.4132690429688	534.2301025390626	-645.7620849609376	-257.6437988281251	444.8364257812501	-637.5819091796876	-237.0198211669922	452.6236877441407	-744.4315795898439	-260.8221740722657	276.2823791503907	-680.2396850585939	-369.9523010253907	230.8052215576172	-670.6937866210939	-324.7045593261719	217.6612243652344	-675.3439331054689	-327.3627929687501	170.3589782714844	-709.9270629882814	-440.831756591797	87.45095062255861	-711.8769531250001	-392.3779907226564	89.74385070800783	-782.6907958984377	-487.8370361328126	41.34804916381837	-792.470642089844	-285.0749511718751	48.83864212036134	-706.4183349609376	-303.7714843750001	53.85746002197267	-664.0186767578126	-360.5197448730469	35.97832489013673	-635.6766967773439	
1033	5.16	-148.3994903564453	1499.356079101563	-932.4008789062502	-288.9368896484376	1414.813720703125	-994.0933227539065	-281.3893127441407	1408.607177734375	-848.4903564453127	-333.5032348632813	1297.841552734375	-912.7346801757815	-481.7340698242189	1062.035034179688	-895.2185058593752	-219.2948150634766	1210.38134765625	-925.3665161132815	-243.5574035644532	1265.741455078125	-1085.974365234375	-320.8353576660157	1130.9267578125	-1269.9892578125	-297.8939208984376	1086.849365234375	-1254.395141601563	-328.3605957031251	1069.889892578125	-1302.661254882813	-341.9108581542969	1007.831665039063	-1320.179565429688	-424.2388000488282	1017.89599609375	-1315.896240234375	-445.3961486816407	830.0816040039065	-1111.245849609375	-402.9891052246095	781.0820922851565	-1144.839599609375	-431.1580200195314	809.4533691406252	-1043.651977539063	-220.0146942138672	1253.178833007813	-763.6909790039064	-256.3416137695313	1120.591674804688	-585.3546752929689	-256.4918212890626	1073.158203125	-596.2010498046876	-273.0014343261719	1070.968139648438	-539.0733032226564	-292.9121704101563	1002.934204101563	-507.6762695312501	-373.7472839355469	1022.111633300781	-495.7833862304689	-422.9335327148439	814.8847656250002	-665.2093505859376	-371.1625976562501	771.633483886719	-643.1045532226564	-401.0153808593751	805.8756103515627	-731.9692382812501	-440.4402465820314	827.3081665039065	-1008.178344726563	-421.5238647460939	840.7922973632815	-764.5062255859376	-573.1369018554689	936.7681884765627	-880.063903808594	-599.8361816406251	913.149353027344	-905.6485595703127	-592.2892456054689	913.0885009765627	-848.3817138671877	-392.2727661132814	635.8363037109376	-1155.196166992188	-321.8386230468751	593.0812988281251	-1180.761474609375	-283.6078796386719	617.3790283203126	-1161.32958984375	-314.6837463378907	531.9025878906251	-1180.405395507813	-287.0317687988282	482.8161926269532	-1181.839721679688	-252.0899810791016	470.8343200683595	-1080.73388671875	-276.8482055664063	297.1830139160157	-1112.265502929688	-346.4959106445313	270.3510742187501	-1162.22314453125	-310.9516601562501	256.6589050292969	-1139.948608398438	-339.2882080078126	186.5970306396485	-1099.529663085938	-460.6368713378907	83.06341552734376	-1093.860595703125	-407.0571289062501	97.35664367675784	-1030.095825195313	-499.0937805175782	44.20688247680665	-1030.360229492188	-292.4195861816407	47.94037246704102	-1081.692016601563	-301.9124145507813	49.8306350708008	-1131.565673828125	-352.5728149414063	29.99982452392579	-1167.522705078125	-410.3072509765626	644.0781860351564	-658.1553955078126	-352.9595947265626	617.5161132812501	-637.9232177734376	-324.8085021972657	636.9091796875001	-635.0174560546876	-330.8534851074219	533.8617553710939	-645.2885131835939	-257.5114440917969	444.3139038085939	-637.5264282226564	-236.5762329101563	452.2809448242189	-744.0195312500001	-260.5917053222657	276.1416320800782	-680.1467895507814	-369.6138610839844	230.9937438964844	-670.4302368164064	-324.4912109375001	217.5515136718751	-675.1798095703126	-327.3547363281251	170.1957244873047	-709.8168334960939	-440.837127685547	87.43206024169923	-711.8851318359376	-392.3796386718751	89.76172637939455	-782.6219482421877	-487.8266601562501	41.33993911743165	-792.492614746094	-285.2244262695313	48.6825637817383	-706.4060058593751	-303.8713989257813	53.86114883422853	-664.0084838867189	-360.5263977050782	35.96596145629884	-635.6439819335939	
